<svg width="800" height="400" viewBox="0 0 800 400" xmlns="http://www.w3.org/2000/svg"><defs><pattern id="satori_pattern_id_0" x="0" y="0" width="1" height="1" patternUnits="objectBoundingBox"><linearGradient id="satori_biid_0" x1="0" y1="0" x2="1" y2="1"><stop offset="0%" stop-color="#e2e2e2"/><stop offset="100%" stop-color="#ffffff"/></linearGradient><rect x="0" y="0" width="800" height="400" fill="url(#satori_biid_0)"/></pattern></defs><mask id="satori_om-id"><rect x="0" y="0" width="800" height="400" fill="#fff"/></mask><rect x="0" y="0" width="800" height="400" fill="url(#satori_pattern_id_0)"/><clipPath id="satori_bct-id-0"><path d="M158.7 157.0L144.1 201.9L130.9 201.9L151.0 143.7L166.8 143.7L186.9 201.9L173.7 201.9L159.1 157.0L158.7 157.0ZM143.3 188.6L143.3 179.0L174.4 179.0L174.4 188.6L143.3 188.6ZM203.8 201.9L191.9 201.9L191.9 143.7L204.0 143.7L204.0 165.6L204.4 165.6Q205.2 163.8 206.7 162.0Q208.2 160.1 210.7 158.9Q213.1 157.7 216.8 157.7L216.8 157.7Q221.5 157.7 225.6 160.2Q229.6 162.6 232.0 167.6Q234.4 172.6 234.4 180.1L234.4 180.1Q234.4 187.4 232.1 192.4Q229.8 197.4 225.7 200.0Q221.7 202.6 216.7 202.6L216.7 202.6Q213.2 202.6 210.8 201.4Q208.3 200.3 206.7 198.5Q205.2 196.7 204.4 194.9L204.4 194.9L203.8 194.9L203.8 201.9ZM203.7 180.1L203.7 180.1Q203.7 184.0 204.8 186.9Q205.9 189.7 207.9 191.4Q210.0 193.0 212.9 193.0L212.9 193.0Q215.9 193.0 217.9 191.3Q220.0 189.7 221.0 186.8Q222.1 183.9 222.1 180.1L222.1 180.1Q222.1 176.3 221.0 173.4Q220.0 170.5 217.9 168.9Q215.9 167.3 212.9 167.3L212.9 167.3Q210.0 167.3 207.9 168.9Q205.9 170.4 204.8 173.3Q203.7 176.2 203.7 180.1ZM256.6 202.6L256.6 202.6Q251.6 202.6 247.6 200.0Q243.6 197.4 241.2 192.4Q238.9 187.4 238.9 180.1L238.9 180.1Q238.9 172.6 241.3 167.6Q243.7 162.6 247.7 160.2Q251.7 157.7 256.5 157.7L256.5 157.7Q260.2 157.7 262.7 158.9Q265.1 160.1 266.6 162.0Q268.2 163.8 268.9 165.6L268.9 165.6L269.3 165.6L269.3 143.7L281.4 143.7L281.4 201.9L269.5 201.9L269.5 194.9L268.9 194.9Q268.1 196.7 266.5 198.5Q265.0 200.3 262.5 201.4Q260.1 202.6 256.6 202.6ZM260.4 193.0L260.4 193.0Q263.3 193.0 265.4 191.4Q267.4 189.7 268.5 186.9Q269.6 184.0 269.6 180.1L269.6 180.1Q269.6 176.2 268.5 173.3Q267.4 170.4 265.4 168.9Q263.3 167.3 260.4 167.3L260.4 167.3Q257.4 167.3 255.4 168.9Q253.3 170.5 252.3 173.4Q251.2 176.3 251.2 180.1L251.2 180.1Q251.2 183.9 252.3 186.8Q253.4 189.7 255.4 191.3Q257.4 193.0 260.4 193.0ZM317.3 183.3L317.3 183.3L317.3 158.2L329.4 158.2L329.4 201.9L317.8 201.9L317.8 194.0L317.3 194.0Q315.8 197.8 312.4 200.1Q309.0 202.4 304.1 202.4L304.1 202.4Q299.7 202.4 296.4 200.5Q293.1 198.5 291.2 194.8Q289.3 191.1 289.3 186.0L289.3 186.0L289.3 158.2L301.4 158.2L301.4 183.9Q301.4 187.7 303.5 190.0Q305.5 192.2 309.0 192.2L309.0 192.2Q311.2 192.2 313.1 191.2Q315.0 190.2 316.1 188.2Q317.3 186.2 317.3 183.3ZM337.1 143.7L349.2 143.7L349.2 201.9L337.1 201.9L337.1 143.7ZM356.8 143.7L368.9 143.7L368.9 201.9L356.8 201.9L356.8 143.7ZM389.0 202.7L389.0 202.7Q384.8 202.7 381.6 201.2Q378.3 199.8 376.4 196.9Q374.5 194.0 374.5 189.7L374.5 189.7Q374.5 186.1 375.9 183.6Q377.2 181.1 379.5 179.6Q381.8 178.1 384.7 177.3Q387.7 176.6 390.9 176.3L390.9 176.3Q394.7 175.9 397.1 175.5Q399.4 175.1 400.4 174.4Q401.5 173.7 401.5 172.3L401.5 172.3L401.5 172.2Q401.5 169.5 399.8 168.0Q398.1 166.5 395.0 166.5L395.0 166.5Q391.7 166.5 389.8 167.9Q387.9 169.4 387.3 171.5L387.3 171.5L376.1 170.6Q376.9 166.7 379.4 163.7Q381.9 160.8 385.9 159.3Q389.8 157.7 395.1 157.7L395.1 157.7Q398.7 157.7 402.0 158.5Q405.4 159.4 408.0 161.2Q410.6 163.0 412.1 165.8Q413.6 168.6 413.6 172.4L413.6 172.4L413.6 201.9L402.1 201.9L402.1 195.8L401.8 195.8Q400.7 197.9 399.0 199.4Q397.2 201.0 394.7 201.8Q392.3 202.7 389.0 202.7ZM392.5 194.4L392.5 194.4Q395.2 194.4 397.2 193.3Q399.2 192.2 400.4 190.4Q401.6 188.6 401.6 186.3L401.6 186.3L401.6 181.7Q401.0 182.0 400.0 182.3Q399.0 182.6 397.8 182.9Q396.6 183.1 395.4 183.3Q394.2 183.5 393.2 183.6L393.2 183.6Q391.0 183.9 389.4 184.6Q387.9 185.3 387.0 186.4Q386.1 187.6 386.1 189.3L386.1 189.3Q386.1 191.8 387.9 193.1Q389.7 194.4 392.5 194.4ZM433.1 176.7L433.1 176.7L433.1 201.9L421.0 201.9L421.0 143.7L432.8 143.7L432.8 165.9L433.3 165.9Q434.7 162.1 438.0 159.9Q441.3 157.7 446.3 157.7L446.3 157.7Q450.9 157.7 454.2 159.7Q457.6 161.6 459.5 165.3Q461.4 169.0 461.4 174.1L461.4 174.1L461.4 201.9L449.3 201.9L449.3 176.3Q449.3 172.2 447.3 170.0Q445.2 167.7 441.5 167.7L441.5 167.7Q439.0 167.7 437.1 168.8Q435.3 169.8 434.2 171.8Q433.1 173.8 433.1 176.7Z M529.1 160.4L517.3 160.4Q516.9 157.0 514.4 155.1Q511.8 153.2 507.3 153.2L507.3 153.2Q504.3 153.2 502.3 154.0Q500.2 154.9 499.1 156.3Q498.0 157.8 498.0 159.7L498.0 159.7Q497.9 161.3 498.7 162.4Q499.4 163.6 500.7 164.4Q501.9 165.3 503.6 165.9Q505.3 166.5 507.2 166.9L507.2 166.9L512.4 168.2Q516.2 169.0 519.4 170.4Q522.6 171.9 524.9 173.9Q527.3 176.0 528.5 178.8Q529.8 181.6 529.9 185.3L529.9 185.3Q529.8 190.6 527.2 194.5Q524.5 198.4 519.4 200.6Q514.4 202.7 507.3 202.7L507.3 202.7Q500.2 202.7 495.0 200.5Q489.8 198.4 486.9 194.1Q484.0 189.9 483.8 183.6L483.8 183.6L495.7 183.6Q495.9 186.5 497.4 188.5Q498.9 190.4 501.4 191.4Q504.0 192.4 507.1 192.4L507.1 192.4Q510.3 192.4 512.6 191.5Q514.9 190.6 516.2 189.0Q517.4 187.3 517.4 185.2L517.4 185.2Q517.4 183.3 516.3 181.9Q515.1 180.6 512.9 179.7Q510.7 178.7 507.6 178.0L507.6 178.0L501.2 176.4Q493.9 174.6 489.6 170.8Q485.3 167.0 485.4 160.5L485.4 160.5Q485.3 155.2 488.2 151.3Q491.1 147.3 496.1 145.1Q501.1 142.9 507.4 142.9L507.4 142.9Q513.9 142.9 518.7 145.1Q523.6 147.3 526.3 151.3Q529.0 155.2 529.1 160.4L529.1 160.4ZM548.0 176.7L548.0 176.7L548.0 201.9L535.9 201.9L535.9 143.7L547.6 143.7L547.6 165.9L548.1 165.9Q549.6 162.1 552.9 159.9Q556.2 157.7 561.2 157.7L561.2 157.7Q565.7 157.7 569.1 159.7Q572.5 161.6 574.4 165.3Q576.3 169.0 576.3 174.1L576.3 174.1L576.3 201.9L564.2 201.9L564.2 176.3Q564.2 172.2 562.1 170.0Q560.1 167.7 556.4 167.7L556.4 167.7Q553.9 167.7 552.0 168.8Q550.1 169.8 549.1 171.8Q548.0 173.8 548.0 176.7ZM596.3 202.7L596.3 202.7Q592.1 202.7 588.8 201.2Q585.6 199.8 583.7 196.9Q581.8 194.0 581.8 189.7L581.8 189.7Q581.8 186.1 583.1 183.6Q584.4 181.1 586.7 179.6Q589.0 178.1 592.0 177.3Q594.9 176.6 598.2 176.3L598.2 176.3Q602.0 175.9 604.3 175.5Q606.6 175.1 607.7 174.4Q608.7 173.7 608.7 172.3L608.7 172.3L608.7 172.2Q608.7 169.5 607.0 168.0Q605.4 166.5 602.3 166.5L602.3 166.5Q599.0 166.5 597.1 167.9Q595.1 169.4 594.5 171.5L594.5 171.5L583.3 170.6Q584.2 166.7 586.7 163.7Q589.2 160.8 593.1 159.3Q597.1 157.7 602.3 157.7L602.3 157.7Q605.9 157.7 609.3 158.5Q612.6 159.4 615.2 161.2Q617.8 163.0 619.3 165.8Q620.8 168.6 620.8 172.4L620.8 172.4L620.8 201.9L609.4 201.9L609.4 195.8L609.0 195.8Q608.0 197.9 606.2 199.4Q604.4 201.0 602.0 201.8Q599.5 202.7 596.3 202.7ZM599.7 194.4L599.7 194.4Q602.4 194.4 604.4 193.3Q606.5 192.2 607.7 190.4Q608.8 188.6 608.8 186.3L608.8 186.3L608.8 181.7Q608.3 182.0 607.3 182.3Q606.3 182.6 605.1 182.9Q603.8 183.1 602.6 183.3Q601.4 183.5 600.4 183.6L600.4 183.6Q598.3 183.9 596.7 184.6Q595.1 185.3 594.2 186.4Q593.3 187.6 593.3 189.3L593.3 189.3Q593.3 191.8 595.1 193.1Q596.9 194.4 599.7 194.4ZM640.3 176.7L640.3 176.7L640.3 201.9L628.2 201.9L628.2 143.7L640.0 143.7L640.0 165.9L640.5 165.9Q642.0 162.1 645.3 159.9Q648.6 157.7 653.6 157.7L653.6 157.7Q658.1 157.7 661.5 159.7Q664.9 161.6 666.8 165.3Q668.7 169.0 668.6 174.1L668.6 174.1L668.6 201.9L656.5 201.9L656.5 176.3Q656.6 172.2 654.5 170.0Q652.4 167.7 648.8 167.7L648.8 167.7Q646.3 167.7 644.4 168.8Q642.5 169.8 641.4 171.8Q640.4 173.8 640.3 176.7Z "/></clipPath><defs><pattern id="satori_pattern_id-0_0" x="0" y="0" width="1" height="1" patternUnits="objectBoundingBox"><linearGradient id="satori_biid-0_0" x1="0" y1="0" x2="1" y2="0"><stop offset="0%" stop-color="rgb(10,10,10)"/><stop offset="100%" stop-color="rgb(50,50,50)"/></linearGradient><rect x="0" y="0" width="543" height="97" fill="url(#satori_biid-0_0)"/></pattern></defs><mask id="satori_om-id-0"><rect x="129" y="127" width="543" height="97" fill="#fff"/></mask><rect x="129" y="127" width="543" height="97" fill="url(#satori_pattern_id-0_0)" clip-path="url(#satori_bct-id-0)"/><clipPath id="satori_bct-id-1"><path d="M90.2 240.7L84.3 240.7Q84.1 239.0 82.8 238.0Q81.6 237.1 79.3 237.1L79.3 237.1Q77.8 237.1 76.8 237.5Q75.8 237.9 75.2 238.7Q74.7 239.4 74.7 240.3L74.7 240.3Q74.6 241.1 75.0 241.7Q75.4 242.3 76 242.7Q76.6 243.1 77.5 243.4Q78.3 243.7 79.3 244.0L79.3 244.0L81.9 244.6Q83.8 245.0 85.4 245.7Q87.0 246.4 88.1 247.5Q89.3 248.5 89.9 249.9Q90.6 251.3 90.6 253.1L90.6 253.1Q90.6 255.8 89.2 257.8Q87.9 259.7 85.4 260.8Q82.9 261.9 79.3 261.9L79.3 261.9Q75.8 261.9 73.2 260.8Q70.6 259.7 69.1 257.6Q67.7 255.4 67.6 252.3L67.6 252.3L73.5 252.3Q73.6 253.8 74.4 254.7Q75.1 255.7 76.4 256.2Q77.6 256.7 79.2 256.7L79.2 256.7Q80.8 256.7 82.0 256.2Q83.1 255.8 83.8 255.0Q84.4 254.2 84.4 253.1L84.4 253.1Q84.4 252.1 83.8 251.5Q83.2 250.8 82.1 250.3Q81.0 249.9 79.5 249.5L79.5 249.5L76.3 248.7Q72.6 247.8 70.5 245.9Q68.3 244.0 68.4 240.8L68.4 240.8Q68.3 238.1 69.8 236.1Q71.2 234.2 73.7 233.1Q76.2 232.0 79.4 232.0L79.4 232.0Q82.6 232.0 85.0 233.1Q87.5 234.2 88.8 236.1Q90.2 238.1 90.2 240.7L90.2 240.7ZM102.5 261.9L102.5 261.9Q99.2 261.9 96.7 260.5Q94.3 259.0 93.0 256.5Q91.7 254.0 91.7 250.6L91.7 250.6Q91.7 247.2 93.0 244.7Q94.3 242.2 96.7 240.8Q99.2 239.3 102.5 239.3L102.5 239.3Q105.8 239.3 108.2 240.8Q110.6 242.2 111.9 244.7Q113.2 247.2 113.2 250.6L113.2 250.6Q113.2 254.0 111.9 256.5Q110.6 259.0 108.2 260.5Q105.8 261.9 102.5 261.9ZM102.5 257.2L102.5 257.2Q104 257.2 105.0 256.3Q106.0 255.5 106.5 254.0Q107.1 252.5 107.1 250.6L107.1 250.6Q107.1 248.7 106.5 247.2Q106.0 245.7 105.0 244.8Q104 244.0 102.5 244.0L102.5 244.0Q101.0 244.0 99.9 244.8Q98.9 245.7 98.4 247.2Q97.9 248.7 97.9 250.6L97.9 250.6Q97.9 252.5 98.4 254.0Q98.9 255.5 99.9 256.3Q101.0 257.2 102.5 257.2ZM113.4 239.6L126.9 239.6L126.9 244.2L113.4 244.2L113.4 239.6ZM122.5 261.4L116.5 261.4L116.5 238.0Q116.5 235.7 117.4 234.1Q118.4 232.5 120.0 231.8Q121.6 231.0 123.7 231.0L123.7 231.0Q125.1 231.0 126.2 231.2Q127.4 231.4 127.9 231.6L127.9 231.6L126.9 236.1Q126.5 236.0 126.0 235.9Q125.5 235.8 124.9 235.8L124.9 235.8Q123.6 235.8 123.1 236.4Q122.5 237.1 122.5 238.2L122.5 238.2L122.5 261.4ZM127.0 239.6L140.2 239.6L140.2 244.2L127.0 244.2L127.0 239.6ZM130.0 255.5L130.0 234.4L136.1 234.4L136.1 254.7Q136.1 255.6 136.3 256.0Q136.6 256.5 137.1 256.7Q137.5 256.9 138.1 256.9L138.1 256.9Q138.6 256.9 139.0 256.8Q139.4 256.7 139.6 256.7L139.6 256.7L140.6 261.2Q140.1 261.3 139.3 261.5Q138.5 261.7 137.3 261.7L137.3 261.7Q135.1 261.8 133.5 261.2Q131.8 260.5 130.9 259.1Q130.0 257.7 130.0 255.5L130.0 255.5ZM152.8 261.4L146.4 261.4L140.5 239.6L146.6 239.6L150.0 254.3L150.2 254.3L153.7 239.6L159.7 239.6L163.3 254.2L163.5 254.2L166.8 239.6L172.9 239.6L167.0 261.4L160.6 261.4L156.8 247.7L156.6 247.7L152.8 261.4ZM180.3 261.9L180.3 261.9Q178.3 261.9 176.6 261.1Q175.0 260.4 174.0 258.9Q173.1 257.5 173.1 255.3L173.1 255.3Q173.1 253.5 173.8 252.3Q174.4 251.1 175.6 250.3Q176.7 249.6 178.2 249.2Q179.7 248.8 181.3 248.6L181.3 248.6Q183.2 248.4 184.4 248.3Q185.5 248.1 186.1 247.7Q186.6 247.4 186.6 246.7L186.6 246.7L186.6 246.6Q186.6 245.2 185.7 244.5Q184.9 243.8 183.3 243.8L183.3 243.8Q181.7 243.8 180.7 244.5Q179.8 245.2 179.5 246.3L179.5 246.3L173.9 245.8Q174.3 243.8 175.5 242.4Q176.8 240.9 178.8 240.1Q180.8 239.3 183.4 239.3L183.4 239.3Q185.2 239.3 186.9 239.8Q188.5 240.2 189.8 241.1Q191.1 242.0 191.9 243.4Q192.6 244.8 192.6 246.7L192.6 246.7L192.6 261.4L186.9 261.4L186.9 258.4L186.7 258.4Q186.2 259.4 185.3 260.2Q184.4 261.0 183.2 261.4Q182.0 261.9 180.3 261.9ZM182.1 257.7L182.1 257.7Q183.4 257.7 184.4 257.1Q185.5 256.6 186.0 255.7Q186.6 254.8 186.6 253.6L186.6 253.6L186.6 251.3Q186.3 251.5 185.9 251.7Q185.4 251.8 184.7 251.9Q184.1 252.1 183.5 252.1Q182.9 252.2 182.4 252.3L182.4 252.3Q181.4 252.5 180.6 252.8Q179.8 253.1 179.3 253.7Q178.9 254.3 178.9 255.1L178.9 255.1Q178.9 256.4 179.8 257.0Q180.7 257.7 182.1 257.7ZM201.4 261.4L195.3 261.4L195.3 239.6L201.2 239.6L201.2 243.4L201.4 243.4Q202.0 241.4 203.4 240.4Q204.8 239.3 206.7 239.3L206.7 239.3Q207.1 239.3 207.7 239.4Q208.2 239.4 208.6 239.5L208.6 239.5L208.6 244.9Q208.1 244.8 207.4 244.7Q206.6 244.6 206.0 244.6L206.0 244.6Q204.7 244.6 203.6 245.1Q202.6 245.7 202.0 246.7Q201.4 247.8 201.4 249.1L201.4 249.1L201.4 261.4ZM218.6 261.9L218.6 261.9Q215.2 261.9 212.8 260.5Q210.4 259.1 209.1 256.6Q207.8 254.1 207.8 250.6L207.8 250.6Q207.8 247.3 209.1 244.7Q210.4 242.2 212.8 240.8Q215.2 239.3 218.4 239.3L218.4 239.3Q220.5 239.3 222.4 240.0Q224.3 240.7 225.7 242.1Q227.1 243.5 227.8 245.6Q228.6 247.6 228.6 250.4L228.6 250.4L228.6 252.1L210.2 252.1L210.2 248.3L222.9 248.3Q222.9 247.0 222.4 246.0Q221.8 245.0 220.8 244.4Q219.8 243.9 218.5 243.9L218.5 243.9Q217.1 243.9 216.0 244.5Q215.0 245.1 214.4 246.2Q213.8 247.2 213.8 248.5L213.8 248.5L213.8 252.1Q213.8 253.7 214.4 254.9Q215.0 256.1 216.1 256.7Q217.2 257.3 218.7 257.3L218.7 257.3Q219.7 257.3 220.6 257.1Q221.4 256.8 222.0 256.2Q222.6 255.6 222.9 254.8L222.9 254.8L228.5 255.2Q228.1 257.2 226.8 258.7Q225.4 260.2 223.4 261.0Q221.3 261.9 218.6 261.9Z M249.3 261.4L249.3 261.4L239.0 261.4L239.0 232.3L249.4 232.3Q253.8 232.3 256.9 234.1Q260.1 235.8 261.8 239.1Q263.5 242.3 263.5 246.9L263.5 246.9Q263.5 251.4 261.8 254.7Q260.1 257.9 256.9 259.7Q253.7 261.4 249.3 261.4ZM245.1 237.6L245.1 256.2L249.0 256.2Q251.8 256.2 253.6 255.2Q255.5 254.2 256.4 252.2Q257.4 250.1 257.4 246.9L257.4 246.9Q257.4 243.6 256.4 241.6Q255.5 239.6 253.6 238.6Q251.8 237.6 249.1 237.6L249.1 237.6L245.1 237.6ZM275.9 261.9L275.9 261.9Q272.5 261.9 270.1 260.5Q267.7 259.1 266.4 256.6Q265.1 254.1 265.1 250.6L265.1 250.6Q265.1 247.3 266.4 244.7Q267.7 242.2 270.1 240.8Q272.4 239.3 275.7 239.3L275.7 239.3Q277.8 239.3 279.7 240.0Q281.6 240.7 283.0 242.1Q284.4 243.5 285.1 245.6Q285.9 247.6 285.9 250.4L285.9 250.4L285.9 252.1L267.5 252.1L267.5 248.3L280.2 248.3Q280.2 247.0 279.7 246.0Q279.1 245.0 278.1 244.4Q277.1 243.9 275.8 243.9L275.8 243.9Q274.4 243.9 273.3 244.5Q272.3 245.1 271.7 246.2Q271.1 247.2 271.1 248.5L271.1 248.5L271.1 252.1Q271.1 253.7 271.7 254.9Q272.3 256.1 273.4 256.7Q274.5 257.3 276.0 257.3L276.0 257.3Q277.0 257.3 277.8 257.1Q278.7 256.8 279.3 256.2Q279.9 255.6 280.2 254.8L280.2 254.8L285.8 255.2Q285.4 257.2 284.0 258.7Q282.7 260.2 280.7 261.0Q278.6 261.9 275.9 261.9ZM301.2 239.6L307.6 239.6L300.0 261.4L293.1 261.4L285.5 239.6L291.9 239.6L296.4 255.2L296.7 255.2L301.2 239.6ZM317.9 261.9L317.9 261.9Q314.5 261.9 312.1 260.5Q309.7 259.1 308.4 256.6Q307.1 254.1 307.1 250.6L307.1 250.6Q307.1 247.3 308.4 244.7Q309.7 242.2 312.1 240.8Q314.5 239.3 317.7 239.3L317.7 239.3Q319.8 239.3 321.7 240.0Q323.6 240.7 325.0 242.1Q326.4 243.5 327.1 245.6Q327.9 247.6 327.9 250.4L327.9 250.4L327.9 252.1L309.5 252.1L309.5 248.3L322.2 248.3Q322.2 247.0 321.7 246.0Q321.1 245.0 320.1 244.4Q319.1 243.9 317.8 243.9L317.8 243.9Q316.4 243.9 315.3 244.5Q314.3 245.1 313.7 246.2Q313.1 247.2 313.1 248.5L313.1 248.5L313.1 252.1Q313.1 253.7 313.7 254.9Q314.3 256.1 315.4 256.7Q316.5 257.3 318.0 257.3L318.0 257.3Q319.0 257.3 319.9 257.1Q320.7 256.8 321.3 256.2Q321.9 255.6 322.2 254.8L322.2 254.8L327.8 255.2Q327.4 257.2 326.1 258.7Q324.7 260.2 322.7 261.0Q320.6 261.9 317.9 261.9ZM329.9 232.3L335.9 232.3L335.9 261.4L329.9 261.4L329.9 232.3ZM348.6 261.9L348.6 261.9Q345.3 261.9 342.9 260.5Q340.5 259.0 339.2 256.5Q337.9 254.0 337.9 250.6L337.9 250.6Q337.9 247.2 339.2 244.7Q340.5 242.2 342.9 240.8Q345.3 239.3 348.6 239.3L348.6 239.3Q351.9 239.3 354.3 240.8Q356.7 242.2 358.0 244.7Q359.3 247.2 359.3 250.6L359.3 250.6Q359.3 254.0 358.0 256.5Q356.7 259.0 354.3 260.5Q351.9 261.9 348.6 261.9ZM348.6 257.2L348.6 257.2Q350.1 257.2 351.2 256.3Q352.2 255.5 352.7 254.0Q353.2 252.5 353.2 250.6L353.2 250.6Q353.2 248.7 352.7 247.2Q352.2 245.7 351.2 244.8Q350.1 244.0 348.6 244.0L348.6 244.0Q347.1 244.0 346.1 244.8Q345.1 245.7 344.5 247.2Q344.0 248.7 344.0 250.6L344.0 250.6Q344.0 252.5 344.5 254.0Q345.1 255.5 346.1 256.3Q347.1 257.2 348.6 257.2ZM367.3 269.6L361.3 269.6L361.3 239.6L367.3 239.6L367.3 243.3L367.5 243.3Q367.9 242.4 368.7 241.5Q369.5 240.6 370.7 240.0Q371.9 239.3 373.7 239.3L373.7 239.3Q376.1 239.3 378.1 240.6Q380.2 241.8 381.4 244.3Q382.6 246.8 382.6 250.6L382.6 250.6Q382.6 254.2 381.4 256.7Q380.2 259.2 378.2 260.5Q376.2 261.8 373.7 261.8L373.7 261.8Q372.0 261.8 370.7 261.2Q369.5 260.6 368.7 259.7Q367.9 258.9 367.5 257.9L367.5 257.9L367.3 257.9L367.3 269.6ZM367.2 250.5L367.2 250.5Q367.2 252.5 367.8 253.9Q368.3 255.4 369.3 256.2Q370.3 257.0 371.8 257.0L371.8 257.0Q373.3 257.0 374.3 256.2Q375.3 255.3 375.9 253.9Q376.4 252.4 376.4 250.5L376.4 250.5Q376.4 248.6 375.9 247.2Q375.3 245.8 374.3 245.0Q373.3 244.2 371.8 244.2L371.8 244.2Q370.3 244.2 369.3 244.9Q368.3 245.7 367.8 247.2Q367.2 248.6 367.2 250.5ZM394.5 261.9L394.5 261.9Q391.2 261.9 388.8 260.5Q386.3 259.1 385.0 256.6Q383.7 254.1 383.7 250.6L383.7 250.6Q383.7 247.3 385.0 244.7Q386.3 242.2 388.7 240.8Q391.1 239.3 394.3 239.3L394.3 239.3Q396.5 239.3 398.3 240.0Q400.2 240.7 401.6 242.1Q403.0 243.5 403.8 245.6Q404.6 247.6 404.6 250.4L404.6 250.4L404.6 252.1L386.1 252.1L386.1 248.3L398.9 248.3Q398.9 247.0 398.3 246.0Q397.7 245.0 396.7 244.4Q395.7 243.9 394.4 243.9L394.4 243.9Q393.0 243.9 392.0 244.5Q390.9 245.1 390.3 246.2Q389.7 247.2 389.7 248.5L389.7 248.5L389.7 252.1Q389.7 253.7 390.3 254.9Q390.9 256.1 392.0 256.7Q393.1 257.3 394.6 257.3L394.6 257.3Q395.6 257.3 396.5 257.1Q397.3 256.8 397.9 256.2Q398.5 255.6 398.8 254.8L398.8 254.8L404.4 255.2Q404.0 257.2 402.7 258.7Q401.4 260.2 399.3 261.0Q397.2 261.9 394.5 261.9ZM412.6 261.4L406.5 261.4L406.5 239.6L412.4 239.6L412.4 243.4L412.6 243.4Q413.2 241.4 414.6 240.4Q416.0 239.3 417.8 239.3L417.8 239.3Q418.3 239.3 418.8 239.4Q419.3 239.4 419.7 239.5L419.7 239.5L419.7 244.9Q419.3 244.8 418.6 244.7Q417.8 244.6 417.2 244.6L417.2 244.6Q415.8 244.6 414.8 245.1Q413.8 245.7 413.2 246.7Q412.6 247.8 412.6 249.1L412.6 249.1L412.6 261.4Z M431.7 223.0L437.4 223.0L437.4 270.8L431.7 270.8L431.7 223.0Z M457.6 237.4L448.7 237.4L448.7 232.3L472.6 232.3L472.6 237.4L463.7 237.4L463.7 261.4L457.6 261.4L457.6 237.4ZM481.2 261.9L481.2 261.9Q477.8 261.9 475.4 260.5Q473.0 259.1 471.7 256.6Q470.4 254.1 470.4 250.6L470.4 250.6Q470.4 247.3 471.7 244.7Q473.0 242.2 475.3 240.8Q477.7 239.3 480.9 239.3L480.9 239.3Q483.1 239.3 485.0 240.0Q486.8 240.7 488.2 242.1Q489.6 243.5 490.4 245.6Q491.2 247.6 491.2 250.4L491.2 250.4L491.2 252.1L472.8 252.1L472.8 248.3L485.5 248.3Q485.5 247.0 484.9 246.0Q484.4 245.0 483.4 244.4Q482.4 243.9 481.0 243.9L481.0 243.9Q479.7 243.9 478.6 244.5Q477.5 245.1 476.9 246.2Q476.3 247.2 476.3 248.5L476.3 248.5L476.3 252.1Q476.3 253.7 476.9 254.9Q477.5 256.1 478.6 256.7Q479.8 257.3 481.3 257.3L481.3 257.3Q482.3 257.3 483.1 257.1Q484.0 256.8 484.6 256.2Q485.2 255.6 485.5 254.8L485.5 254.8L491.1 255.2Q490.6 257.2 489.3 258.7Q488.0 260.2 485.9 261.0Q483.9 261.9 481.2 261.9ZM503.0 261.9L503.0 261.9Q499.6 261.9 497.2 260.4Q494.8 259.0 493.5 256.5Q492.3 253.9 492.3 250.6L492.3 250.6Q492.3 247.3 493.6 244.7Q494.9 242.2 497.3 240.8Q499.7 239.3 503.0 239.3L503.0 239.3Q505.8 239.3 508.0 240.4Q510.1 241.4 511.4 243.3Q512.6 245.2 512.7 247.7L512.7 247.7L507.0 247.7Q506.8 246.1 505.8 245.1Q504.7 244.1 503.1 244.1L503.1 244.1Q501.7 244.1 500.6 244.8Q499.6 245.6 499.0 247.0Q498.4 248.5 498.4 250.5L498.4 250.5Q498.4 252.6 499.0 254.1Q499.6 255.5 500.6 256.3Q501.7 257.1 503.1 257.1L503.1 257.1Q504.1 257.1 504.9 256.7Q505.8 256.2 506.3 255.4Q506.9 254.6 507.0 253.4L507.0 253.4L512.7 253.4Q512.6 255.9 511.4 257.8Q510.2 259.7 508.0 260.8Q505.9 261.9 503.0 261.9ZM520.7 248.8L520.7 248.8L520.7 261.4L514.6 261.4L514.6 232.3L520.5 232.3L520.5 243.5L520.8 243.5Q521.5 241.5 523.2 240.4Q524.8 239.3 527.3 239.3L527.3 239.3Q529.6 239.3 531.3 240.3Q533.0 241.3 533.9 243.2Q534.8 245.0 534.8 247.5L534.8 247.5L534.8 261.4L528.8 261.4L528.8 248.6Q528.8 246.6 527.8 245.5Q526.7 244.4 524.9 244.4L524.9 244.4Q523.7 244.4 522.7 244.9Q521.8 245.4 521.2 246.4Q520.7 247.4 520.7 248.8Z M567.8 261.4L548.2 261.4L548.2 232.3L567.8 232.3L567.8 237.4L554.3 237.4L554.3 244.4L566.8 244.4L566.8 249.4L554.3 249.4L554.3 256.4L567.8 256.4L567.8 261.4ZM576.6 248.8L576.6 248.8L576.6 261.4L570.6 261.4L570.6 239.6L576.3 239.6L576.3 243.5L576.6 243.5Q577.3 241.6 579.0 240.5Q580.7 239.3 583.2 239.3L583.2 239.3Q585.4 239.3 587.1 240.3Q588.8 241.3 589.7 243.2Q590.7 245.0 590.7 247.5L590.7 247.5L590.7 261.4L584.6 261.4L584.6 248.6Q584.6 246.6 583.6 245.5Q582.6 244.4 580.8 244.4L580.8 244.4Q579.5 244.4 578.6 244.9Q577.7 245.4 577.1 246.4Q576.6 247.4 576.6 248.8ZM591.9 239.6L605.0 239.6L605.0 244.2L591.9 244.2L591.9 239.6ZM594.9 255.5L594.9 234.4L600.9 234.4L600.9 254.7Q600.9 255.6 601.2 256.0Q601.4 256.5 601.9 256.7Q602.4 256.9 603.0 256.9L603.0 256.9Q603.4 256.9 603.8 256.8Q604.3 256.7 604.5 256.7L604.5 256.7L605.4 261.2Q605.0 261.3 604.2 261.5Q603.3 261.7 602.2 261.7L602.2 261.7Q600.0 261.8 598.3 261.2Q596.7 260.5 595.8 259.1Q594.9 257.7 594.9 255.5L594.9 255.5ZM613.5 248.8L613.5 248.8L613.5 261.4L607.4 261.4L607.4 232.3L613.3 232.3L613.3 243.5L613.6 243.5Q614.3 241.5 616.0 240.4Q617.6 239.3 620.1 239.3L620.1 239.3Q622.4 239.3 624.1 240.3Q625.8 241.3 626.7 243.2Q627.6 245.0 627.6 247.5L627.6 247.5L627.6 261.4L621.6 261.4L621.6 248.6Q621.6 246.6 620.6 245.5Q619.5 244.4 617.7 244.4L617.7 244.4Q616.5 244.4 615.5 244.9Q614.6 245.4 614.0 246.4Q613.5 247.4 613.5 248.8ZM644.4 252.2L644.4 252.2L644.4 239.6L650.4 239.6L650.4 261.4L644.6 261.4L644.6 257.5L644.4 257.5Q643.7 259.4 642.0 260.6Q640.2 261.7 637.8 261.7L637.8 261.7Q635.6 261.7 633.9 260.7Q632.3 259.7 631.3 257.9Q630.4 256.1 630.4 253.5L630.4 253.5L630.4 239.6L636.5 239.6L636.5 252.4Q636.5 254.4 637.5 255.5Q638.5 256.6 640.2 256.6L640.2 256.6Q641.3 256.6 642.3 256.1Q643.2 255.6 643.8 254.6Q644.4 253.6 644.4 252.2ZM671.4 245.8L671.4 245.8L665.9 246.2Q665.7 245.5 665.3 244.9Q664.8 244.3 664.0 244.0Q663.3 243.6 662.2 243.6L662.2 243.6Q660.8 243.6 659.9 244.2Q658.9 244.8 658.9 245.8L658.9 245.8Q658.9 246.6 659.5 247.1Q660.2 247.6 661.7 248.0L661.7 248.0L665.6 248.8Q668.8 249.4 670.4 250.9Q671.9 252.3 671.9 254.7L671.9 254.7Q671.9 256.8 670.7 258.4Q669.4 260.1 667.2 261.0Q665.1 261.9 662.2 261.9L662.2 261.9Q657.9 261.9 655.3 260.1Q652.8 258.2 652.3 255.1L652.3 255.1L658.3 254.8Q658.5 256.1 659.6 256.8Q660.6 257.5 662.2 257.5L662.2 257.5Q663.8 257.5 664.8 256.9Q665.8 256.3 665.8 255.3L665.8 255.3Q665.8 254.5 665.1 253.9Q664.4 253.4 663.0 253.1L663.0 253.1L659.2 252.4Q656.0 251.7 654.4 250.1Q652.9 248.6 652.9 246.1L652.9 246.1Q652.9 244.0 654.0 242.5Q655.2 241.0 657.3 240.2Q659.3 239.3 662.1 239.3L662.1 239.3Q666.3 239.3 668.7 241.1Q671.0 242.8 671.4 245.8ZM679.8 261.4L673.7 261.4L673.7 239.6L679.8 239.6L679.8 261.4ZM676.8 236.8L676.8 236.8Q675.4 236.8 674.5 235.9Q673.5 235.0 673.5 233.7L673.5 233.7Q673.5 232.5 674.5 231.6Q675.4 230.7 676.8 230.7L676.8 230.7Q678.1 230.7 679.1 231.6Q680.1 232.5 680.1 233.7L680.1 233.7Q680.1 235.0 679.1 235.9Q678.1 236.8 676.8 236.8ZM688.8 261.9L688.8 261.9Q686.8 261.9 685.1 261.1Q683.5 260.4 682.5 258.9Q681.6 257.5 681.6 255.3L681.6 255.3Q681.6 253.5 682.3 252.3Q682.9 251.1 684.1 250.3Q685.2 249.6 686.7 249.2Q688.2 248.8 689.8 248.6L689.8 248.6Q691.7 248.4 692.9 248.3Q694.0 248.1 694.6 247.7Q695.1 247.4 695.1 246.7L695.1 246.7L695.1 246.6Q695.1 245.2 694.2 244.5Q693.4 243.8 691.8 243.8L691.8 243.8Q690.2 243.8 689.2 244.5Q688.3 245.2 688.0 246.3L688.0 246.3L682.4 245.8Q682.8 243.8 684.0 242.4Q685.3 240.9 687.3 240.1Q689.3 239.3 691.9 239.3L691.9 239.3Q693.7 239.3 695.4 239.8Q697.0 240.2 698.3 241.1Q699.6 242.0 700.4 243.4Q701.1 244.8 701.1 246.7L701.1 246.7L701.1 261.4L695.4 261.4L695.4 258.4L695.2 258.4Q694.7 259.4 693.8 260.2Q692.9 261.0 691.7 261.4Q690.5 261.9 688.8 261.9ZM690.6 257.7L690.6 257.7Q691.9 257.7 692.9 257.1Q694.0 256.6 694.5 255.7Q695.1 254.8 695.1 253.6L695.1 253.6L695.1 251.3Q694.8 251.5 694.4 251.7Q693.9 251.8 693.3 251.9Q692.6 252.1 692.0 252.1Q691.4 252.2 690.9 252.3L690.9 252.3Q689.9 252.5 689.1 252.8Q688.3 253.1 687.8 253.7Q687.4 254.3 687.4 255.1L687.4 255.1Q687.4 256.4 688.3 257.0Q689.2 257.7 690.6 257.7ZM722.0 245.8L722.0 245.8L716.5 246.2Q716.3 245.5 715.8 244.9Q715.4 244.3 714.6 244.0Q713.9 243.6 712.8 243.6L712.8 243.6Q711.4 243.6 710.4 244.2Q709.5 244.8 709.5 245.8L709.5 245.8Q709.5 246.6 710.1 247.1Q710.7 247.6 712.2 248.0L712.2 248.0L716.2 248.8Q719.4 249.4 720.9 250.9Q722.5 252.3 722.5 254.7L722.5 254.7Q722.5 256.8 721.2 258.4Q720.0 260.1 717.8 261.0Q715.6 261.9 712.8 261.9L712.8 261.9Q708.4 261.9 705.9 260.1Q703.3 258.2 702.9 255.1L702.9 255.1L708.8 254.8Q709.1 256.1 710.1 256.8Q711.2 257.5 712.8 257.5L712.8 257.5Q714.4 257.5 715.4 256.9Q716.3 256.3 716.3 255.3L716.3 255.3Q716.3 254.5 715.6 253.9Q715.0 253.4 713.5 253.1L713.5 253.1L709.8 252.4Q706.6 251.7 705.0 250.1Q703.5 248.6 703.5 246.1L703.5 246.1Q703.5 244.0 704.6 242.5Q705.7 241.0 707.8 240.2Q709.9 239.3 712.7 239.3L712.7 239.3Q716.8 239.3 719.2 241.1Q721.6 242.8 722.0 245.8ZM722.8 239.6L735.9 239.6L735.9 244.2L722.8 244.2L722.8 239.6ZM725.8 255.5L725.8 234.4L731.8 234.4L731.8 254.7Q731.8 255.6 732.1 256.0Q732.3 256.5 732.8 256.7Q733.2 256.9 733.9 256.9L733.9 256.9Q734.3 256.9 734.7 256.8Q735.1 256.7 735.4 256.7L735.4 256.7L736.3 261.2Q735.9 261.3 735.0 261.5Q734.2 261.7 733.0 261.7L733.0 261.7Q730.8 261.8 729.2 261.2Q727.6 260.5 726.7 259.1Q725.7 257.7 725.8 255.5L725.8 255.5Z "/></clipPath><defs><pattern id="satori_pattern_id-1_0" x="0" y="0" width="1" height="1" patternUnits="objectBoundingBox"><linearGradient id="satori_biid-1_0" x1="0" y1="0" x2="1" y2="0"><stop offset="0%" stop-color="rgb(100,100,100)"/><stop offset="100%" stop-color="rgb(60,60,60)"/></linearGradient><rect x="0" y="0" width="669" height="49" fill="url(#satori_biid-1_0)"/></pattern></defs><mask id="satori_om-id-1"><rect x="66" y="224" width="669" height="49" fill="#fff"/></mask><rect x="66" y="224" width="669" height="49" fill="url(#satori_pattern_id-1_0)" clip-path="url(#satori_bct-id-1)"/></svg>